<svg width="40" height="41" viewBox="0 0 40 41" fill="none" xmlns="http://www.w3.org/2000/svg">
<path d="M0 20C0 19.548 0.150659 19.1525 0.47081 18.8324C0.79096 18.5311 1.18644 18.3804 1.60075 18.3804H5.44256C5.87571 18.3804 6.23352 18.5311 6.53484 18.8512C6.81733 19.1714 6.96798 19.548 6.96798 20C6.96798 20.452 6.83616 20.8286 6.55367 21.1488C6.27119 21.4689 5.89454 21.6196 5.46139 21.6196H1.61959C1.18644 21.6196 0.809793 21.4689 0.489643 21.1488C0.169492 20.8286 0 20.452 0 20ZM5.38606 33.0508C5.38606 32.6177 5.53672 32.2411 5.81921 31.9021L8.58757 29.209C8.87006 28.9077 9.2467 28.7759 9.69868 28.7759C10.1507 28.7759 10.5273 28.9266 10.8286 29.209C11.1299 29.4915 11.2806 29.8493 11.2806 30.2825C11.2806 30.7345 11.1299 31.1488 10.8286 31.4878L8.15442 34.162C7.3823 34.7646 6.61017 34.7646 5.83804 34.162C5.53672 33.8606 5.38606 33.484 5.38606 33.0508ZM5.38606 6.98682C5.38606 6.55367 5.53672 6.17702 5.81921 5.83804C6.19586 5.51789 6.59134 5.36723 7.02448 5.36723C7.4388 5.36723 7.81544 5.51789 8.13559 5.81921L10.8286 8.58757C11.1299 8.87006 11.2806 9.2467 11.2806 9.69868C11.2806 10.1507 11.1299 10.5273 10.8286 10.8286C10.5273 11.1299 10.1507 11.2806 9.69868 11.2806C9.2467 11.2806 8.87006 11.1299 8.58757 10.8286L5.83804 8.13559C5.53672 7.83427 5.38606 7.43879 5.38606 6.98682ZM10.1883 20C10.1883 18.2486 10.6215 16.6102 11.5066 15.1036C12.3917 13.597 13.5782 12.3917 15.1036 11.5066C16.629 10.6215 18.2486 10.1883 20 10.1883C21.3183 10.1883 22.58 10.452 23.8041 10.9793C25.0094 11.5066 26.064 12.2034 26.9303 13.0885C27.8154 13.9736 28.5122 15.0094 29.0207 16.2147C29.5292 17.42 29.7928 18.7006 29.7928 20.0188C29.7928 21.7891 29.3597 23.4275 28.4746 24.9341C27.5895 26.4407 26.403 27.6271 24.8964 28.5122C23.3898 29.3974 21.7514 29.8305 19.9812 29.8305C18.2109 29.8305 16.5725 29.3974 15.0659 28.5122C13.5593 27.6271 12.3729 26.4407 11.4878 24.9341C10.6403 23.4087 10.1883 21.7702 10.1883 20ZM13.3898 20C13.3898 21.8456 14.0301 23.4087 15.3296 24.7081C16.6102 26.0075 18.1733 26.6667 20.0188 26.6667C21.8644 26.6667 23.4275 26.0075 24.7269 24.7081C26.0264 23.4087 26.6855 21.8456 26.6855 20C26.6855 18.1921 26.0264 16.6478 24.7269 15.3484C23.4275 14.0678 21.8644 13.4275 20.0188 13.4275C18.1921 13.4275 16.629 14.0678 15.3484 15.3484C14.0301 16.6478 13.3898 18.1921 13.3898 20ZM18.3992 34.6516C18.3992 34.1996 18.5499 33.823 18.8701 33.5217C19.1902 33.2203 19.5669 33.0697 20 33.0697C20.452 33.0697 20.8475 33.2203 21.1488 33.5217C21.4501 33.823 21.6008 34.1996 21.6008 34.6516V38.3992C21.6008 38.8512 21.4501 39.2467 21.1299 39.5669C20.8098 39.887 20.4331 40.0377 20 40.0377C19.5669 40.0377 19.1714 39.887 18.8701 39.5669C18.5499 39.2467 18.3992 38.8512 18.3992 38.3992V34.6516ZM18.3992 5.46139V1.61959C18.3992 1.18644 18.5499 0.809793 18.8701 0.489643C19.1902 0.169492 19.5669 0 20.0188 0C20.4708 0 20.8286 0.150659 21.1488 0.47081C21.4689 0.79096 21.6196 1.16761 21.6196 1.60075V5.46139C21.6196 5.89454 21.4689 6.25235 21.1488 6.55367C20.8286 6.85499 20.452 6.98682 20.0188 6.98682C19.5857 6.98682 19.1902 6.83616 18.8889 6.55367C18.5876 6.27119 18.3992 5.89454 18.3992 5.46139ZM28.7947 30.2825C28.7947 29.8493 28.9454 29.4915 29.2279 29.2279C29.5104 28.9266 29.8682 28.7947 30.2825 28.7947C30.7345 28.7947 31.1111 28.9454 31.4124 29.2279L34.162 31.9209C34.4633 32.2411 34.6139 32.6365 34.6139 33.0697C34.6139 33.5028 34.4633 33.8795 34.162 34.1808C33.4087 34.7646 32.6554 34.7646 31.9021 34.1808L29.2279 31.5066C28.9454 31.1676 28.7947 30.7721 28.7947 30.2825ZM28.7947 9.71751C28.7947 9.2467 28.9454 8.87006 29.2279 8.6064L31.9021 5.83804C32.2222 5.53672 32.5989 5.38606 33.0132 5.38606C33.4652 5.38606 33.8418 5.53672 34.1431 5.85687C34.4633 6.17702 34.6139 6.55367 34.6139 6.98682C34.6139 7.45763 34.4633 7.85311 34.162 8.15442L31.4124 10.8475C31.0734 11.1488 30.6968 11.2994 30.2825 11.2994C29.8493 11.2994 29.5104 11.1488 29.2279 10.8475C28.9454 10.5461 28.7947 10.1695 28.7947 9.71751ZM33.0508 20C33.0508 19.548 33.2015 19.1714 33.5028 18.8324C33.8041 18.5311 34.162 18.3804 34.5763 18.3804H38.3804C38.8136 18.3804 39.1902 18.5499 39.5104 18.8701C39.8305 19.1902 40 19.5669 40 20C40 20.4331 39.8305 20.8098 39.5104 21.1299C39.1902 21.4501 38.8136 21.6008 38.3804 21.6008H34.5763C34.1431 21.6008 33.7665 21.4501 33.484 21.1299C33.2015 20.8098 33.0508 20.452 33.0508 20Z" fill="black"/>
</svg>
