<svg width="61" height="40" viewBox="0 0 61 40" fill="none" xmlns="http://www.w3.org/2000/svg">
<path d="M0 27.9648C0 25.277 0.841648 22.8606 2.52494 20.7701C4.20824 18.6795 6.35308 17.322 8.98663 16.7247C9.69252 13.5482 11.2944 10.9146 13.8193 8.90555C16.3443 6.86931 19.2493 5.86476 22.5616 5.86476C25.7653 5.86476 28.6432 6.84216 31.141 8.82411C33.6659 10.8061 35.2949 13.331 36.028 16.4261H36.761C39.9647 16.4261 42.6797 17.5392 44.9331 19.7927C47.1866 22.0461 48.3269 24.7611 48.3269 27.9377C48.3269 31.1414 47.1866 33.8563 44.9331 36.1098C42.6797 38.3632 39.9647 39.5035 36.761 39.5035H11.593C10.0183 39.5035 8.52508 39.2049 7.11328 38.5804C5.70149 37.956 4.42544 37.1958 3.39374 36.1641C2.36204 35.1324 1.54755 33.8835 0.923097 32.4717C0.298649 31.0599 0 29.5124 0 27.9648ZM3.93674 27.9648C3.93674 30.0282 4.69694 31.8201 6.16303 33.2862C7.62913 34.7523 9.44817 35.5125 11.5659 35.5125H36.761C38.8515 35.5125 40.6706 34.7794 42.1638 33.2862C43.6571 31.7929 44.4173 30.0282 44.4173 27.9648C44.4173 25.9014 43.6842 24.1095 42.1638 22.6434C40.6706 21.1773 38.8787 20.4171 36.761 20.4171H32.9872C32.7157 20.4171 32.5799 20.2814 32.5799 20.0099L32.3899 18.6795C32.1184 16.1274 31.0324 13.9826 29.159 12.2993C27.2857 10.616 25.0594 9.77435 22.5073 9.77435C19.9552 9.77435 17.7289 10.616 15.8284 12.3264C13.9279 14.0097 12.8691 16.1546 12.6247 18.6795L12.4347 19.8198C12.4347 20.0913 12.2989 20.2271 12.0003 20.2271L10.7785 20.4171C8.82373 20.58 7.19473 21.3945 5.86439 22.8335C4.61549 24.2724 3.93674 25.9829 3.93674 27.9648ZM27.9644 4.29007C27.6929 4.53442 27.7472 4.72447 28.1545 4.86021C29.3219 5.37606 30.2993 5.86476 31.0867 6.35346C31.3853 6.43491 31.6025 6.40776 31.684 6.27201C33.3401 4.72446 35.2406 3.93712 37.4398 3.93712C39.6389 3.93712 41.5122 4.67017 43.1412 6.13626C44.7431 7.60236 45.639 9.4214 45.8291 11.5662L46.0734 13.3038H49.9287C51.6935 13.3038 53.2139 13.9283 54.4899 15.2043C55.766 16.4804 56.3904 17.9736 56.3904 19.7112C56.3904 21.3402 55.8203 22.752 54.7071 23.9738C53.594 25.1955 52.2093 25.8743 50.5532 26.0643C50.2817 26.0643 50.1459 26.2001 50.1459 26.4987V29.5667C50.1459 29.8653 50.2817 30.0011 50.5532 30.0011C53.2953 29.8382 55.6031 28.7522 57.4764 26.7702C59.3497 24.7883 60.3 22.4262 60.3 19.7112C60.3 16.8333 59.2954 14.3898 57.2592 12.3807C55.223 10.3445 52.7795 9.33995 49.9287 9.33995H49.5215C48.8156 6.62496 47.3223 4.39867 45.0417 2.63392C42.7883 0.869176 40.2362 0.000377104 37.4398 0.000377104C33.6388 -0.0267728 30.4622 1.41217 27.9644 4.29007Z" fill="black"/>
</svg>
