<svg width="61" height="61" viewBox="0 0 61 61" fill="none" xmlns="http://www.w3.org/2000/svg">
<path d="M0 35.9291C0 38.8859 1.03039 41.4395 3.06876 43.545C5.10713 45.6506 7.6383 46.793 10.6399 46.9274C10.9087 46.9274 11.0431 46.793 11.0431 46.5466V43.5674C11.0431 43.2986 10.9087 43.1642 10.6399 43.1642C8.71348 43.0746 7.10071 42.313 5.77912 40.9243C4.45754 39.5355 3.80795 37.8555 3.80795 35.9067C3.80795 34.0251 4.43514 32.3676 5.68952 31.0012C6.94391 29.6124 8.51189 28.8508 10.3935 28.694L11.5806 28.5148C11.827 28.5148 11.939 28.4028 11.939 28.2012L12.1182 26.9692C12.387 24.5277 13.4398 22.4893 15.2094 20.8765C16.979 19.2637 19.0845 18.4798 21.5485 18.4798C24.0125 18.4798 26.1405 19.2861 27.9548 20.8989C29.7916 22.5117 30.822 24.5277 31.046 26.9244L31.2028 28.2236C31.2476 28.47 31.4268 28.6044 31.6956 28.6044H35.2795C37.2731 28.6044 38.9755 29.3212 40.4091 30.7548C41.8426 32.1884 42.5594 33.9132 42.5594 35.9291C42.5594 37.8779 41.9098 39.5355 40.5883 40.9467C39.2667 42.3578 37.6539 43.0746 35.7275 43.1866C35.4363 43.1866 35.2795 43.321 35.2795 43.5898V46.569C35.2795 46.8154 35.4363 46.9498 35.7275 46.9498C38.7067 46.8602 41.2155 45.7402 43.2762 43.6122C45.3146 41.4842 46.345 38.9307 46.345 35.9515C46.345 34.4283 46.0538 32.95 45.4938 31.4492C47.241 29.2988 48.0922 26.79 48.0922 23.9453C48.0922 22.3549 47.7786 20.8541 47.1738 19.3981C46.569 17.9422 45.7178 16.7102 44.665 15.6574C43.6122 14.6046 42.3578 13.7758 40.9243 13.1486C39.4907 12.5214 37.9451 12.2078 36.3547 12.2078C32.9052 12.2078 30.0156 13.507 27.7084 16.1054C25.7149 15.1198 23.6541 14.627 21.5709 14.627C18.4126 14.627 15.6126 15.6126 13.1934 17.5614C10.7743 19.5101 9.22868 22.0413 8.53429 25.1325C6.02552 25.7149 3.96475 26.9916 2.37437 29.0076C0.783989 31.0236 0 33.3308 0 35.9291ZM11.9838 51.6761C11.9838 52.0569 12.0958 52.4377 12.3422 52.8185C12.5886 53.1993 12.947 53.4457 13.395 53.6025C13.9102 53.7593 14.403 53.7369 14.8286 53.5129C15.2766 53.3113 15.5678 52.8857 15.7246 52.2585L16.0382 50.8921C16.1502 50.3769 16.083 49.9065 15.8142 49.4809C15.5454 49.0329 15.1646 48.7418 14.6494 48.585C14.1342 48.4282 13.6638 48.4954 13.2158 48.7642C12.7678 49.0329 12.499 49.4137 12.3646 49.9289L12.051 51.2505C12.0062 51.3849 11.9838 51.5193 11.9838 51.6761ZM13.7086 45.1802C13.7086 45.673 13.8878 46.0986 14.2462 46.457C14.6046 46.8602 15.0302 47.0394 15.5006 47.0394C16.0382 47.0394 16.4862 46.8602 16.8446 46.5018C17.2254 46.1434 17.4046 45.7178 17.4046 45.1802C17.4046 44.665 17.2254 44.217 16.8446 43.8586C16.4638 43.5002 16.0158 43.321 15.5006 43.321C14.9854 43.321 14.5598 43.5002 14.2014 43.8362C13.843 44.1722 13.7086 44.665 13.7086 45.1802ZM15.075 40.0955C15.0526 40.4539 15.1422 40.7899 15.3662 41.1035C15.5902 41.4394 15.9486 41.6634 16.4414 41.8202C16.9118 41.9546 17.3598 41.9098 17.8302 41.6634C18.3006 41.417 18.6142 41.0363 18.7709 40.5211L19.3757 38.5051C19.5325 37.9675 19.4877 37.4747 19.2189 37.0491C18.9501 36.6235 18.547 36.3323 18.0094 36.1755C17.5166 36.0187 17.0462 36.0635 16.5982 36.3323C16.1502 36.5787 15.8366 36.9595 15.6798 37.4523L15.1422 39.5131C15.0974 39.8715 15.075 40.0731 15.075 40.0955ZM17.651 58.6648C17.651 59.0456 17.763 59.404 18.0094 59.7624C18.2558 60.1208 18.6142 60.3672 19.1069 60.5016C19.3085 60.5464 19.4877 60.5688 19.6445 60.5688C20.6077 60.5688 21.2125 60.1208 21.4365 59.2024L21.7277 57.8808C21.8621 57.2984 21.7949 56.8056 21.5485 56.3577C21.3021 55.9097 20.8989 55.6409 20.3837 55.5289C19.9133 55.3721 19.4429 55.4169 18.9725 55.6857C18.5022 55.9545 18.211 56.3353 18.0542 56.828L17.7406 58.172C17.6734 58.4184 17.651 58.5976 17.651 58.6648ZM18.9053 8.39989C18.9053 8.93748 19.0845 9.38548 19.4429 9.74387L20.9213 11.1775C21.2349 11.5358 21.6381 11.715 22.1309 11.7598C22.6237 11.8046 23.0941 11.603 23.5197 11.1775C23.8781 10.8191 24.0573 10.3711 24.0573 9.85587C24.0573 9.31828 23.8781 8.87028 23.5197 8.51189L22.1085 7.05591C21.7725 6.69751 21.3245 6.51831 20.8093 6.47351C20.2941 6.47351 19.8461 6.65271 19.4653 7.03351C19.1069 7.4143 18.9053 7.86229 18.9053 8.39989ZM19.4205 52.1689C19.4205 52.6841 19.5997 53.1097 19.9581 53.4681C20.3165 53.8265 20.7645 54.0057 21.2573 54.0057C21.7949 54.0057 22.2205 53.8265 22.5789 53.4905C22.9373 53.1321 23.0941 52.7065 23.0941 52.1689C23.0941 51.6537 22.9149 51.2281 22.5789 50.8697C22.2205 50.5113 21.7949 50.3545 21.2573 50.3545C20.7197 50.3545 20.2941 50.5337 19.9357 50.8697C19.5773 51.2057 19.4205 51.6537 19.4205 52.1689ZM20.8093 47.0842C20.7869 47.4202 20.8765 47.7786 21.1229 48.137C21.3469 48.4954 21.6829 48.7194 22.1309 48.809C22.6461 48.9434 23.1165 48.8985 23.5645 48.6746C24.0125 48.4506 24.3037 48.025 24.4829 47.4202L25.0653 45.4042C25.2221 44.9114 25.1773 44.441 24.9085 43.993C24.6397 43.545 24.2589 43.2538 23.7213 43.097C23.2285 42.9402 22.7581 43.0074 22.2877 43.2762C21.8173 43.545 21.5261 43.9482 21.3693 44.4634L20.8765 46.4794C20.8317 46.6586 20.8093 46.8602 20.8093 47.0842ZM26.9916 51.9001C26.9916 52.2809 27.1036 52.6393 27.3276 52.9753C27.5516 53.3113 27.8876 53.5577 28.358 53.6921C28.4252 53.6921 28.5372 53.7145 28.6716 53.7369C28.806 53.7593 28.918 53.7817 28.9852 53.7817C29.9036 53.7817 30.4636 53.2889 30.6876 52.3033L31.0012 50.9593C31.158 50.4889 31.1132 50.0185 30.8444 49.5481C30.5756 49.0777 30.1948 48.7866 29.702 48.6298C29.142 48.4954 28.6268 48.5402 28.1788 48.809C27.7308 49.0777 27.4172 49.4585 27.2604 49.9961L27.0588 51.3177C27.0588 51.3401 27.0588 51.4297 27.0364 51.5641C27.014 51.7209 26.9916 51.8105 26.9916 51.9001ZM28.6492 45.2698C28.6492 45.785 28.8284 46.2106 29.1868 46.5466C29.5228 46.905 29.9484 47.0842 30.486 47.0842C31.0236 47.0842 31.4492 46.905 31.8076 46.569C32.166 46.2106 32.3228 45.785 32.3228 45.2698C32.3228 44.7322 32.1436 44.3066 31.8076 43.9482C31.4492 43.5898 31.0236 43.433 30.486 43.433C29.9484 43.433 29.5228 43.6122 29.1644 43.9482C28.806 44.2842 28.6492 44.7322 28.6492 45.2698ZM30.0156 40.0955C30.0156 40.4763 30.1276 40.8347 30.374 41.1707C30.6204 41.5067 30.9788 41.753 31.4716 41.8874C31.5164 41.8874 31.606 41.9098 31.7404 41.9322C31.8748 41.9546 31.9868 41.977 32.054 41.977C32.3004 41.977 32.5692 41.9098 32.8828 41.7754C33.3532 41.529 33.6444 41.1483 33.7788 40.6107L34.3163 38.5947C34.4507 38.0795 34.4059 37.6091 34.1595 37.1835C33.9131 36.7579 33.5324 36.4443 33.0396 36.2875C32.5244 36.1307 32.0316 36.1755 31.606 36.4219C31.158 36.6683 30.8668 37.0267 30.71 37.5643L30.0828 39.6027C30.0828 39.6475 30.0828 39.7147 30.0604 39.8491C30.038 39.9163 30.0156 40.0059 30.0156 40.0955ZM30.7996 18.323C32.278 16.8446 34.1147 16.1054 36.3323 16.1054C38.5499 16.1054 40.4315 16.867 41.977 18.3902C43.5226 19.9133 44.3066 21.7501 44.3066 23.9453C44.3066 25.4237 43.9034 26.8348 43.1194 28.1564C40.9243 25.9613 38.3035 24.8637 35.2795 24.8637H34.5851C33.9579 22.3997 32.6812 20.2269 30.7996 18.323ZM34.4955 6.54071C34.4955 7.05591 34.6747 7.4815 35.0107 7.8399C35.3467 8.17589 35.7947 8.35509 36.3323 8.35509C36.8699 8.35509 37.3403 8.17589 37.7211 7.8399C38.1019 7.5039 38.2811 7.05591 38.2811 6.54071V1.90397C38.2811 1.38878 38.0795 0.940787 37.6987 0.559992C37.3179 0.179197 36.8475 0 36.3323 0C35.8171 0 35.3691 0.179197 35.0331 0.559992C34.6747 0.940787 34.5179 1.38878 34.5179 1.90397V6.54071H34.4955ZM46.8602 11.603C46.8602 12.163 47.0394 12.611 47.3754 12.947C48.1818 13.7534 49.0777 13.7534 50.0857 12.947L53.2889 9.74387C53.6697 9.36308 53.8489 8.89268 53.8489 8.33269C53.8489 7.7951 53.6697 7.3471 53.2889 6.98871C52.9081 6.60791 52.4601 6.42871 51.9449 6.42871C51.4297 6.42871 50.9817 6.60791 50.5785 6.96631L47.3754 10.2815C47.0394 10.6175 46.8602 11.0431 46.8602 11.603ZM48.6074 38.1467C48.6074 38.6619 48.809 39.1099 49.2121 39.4683L50.5785 40.8795C51.0265 41.2379 51.4745 41.417 51.9449 41.417C52.3929 41.417 52.8409 41.2379 53.2889 40.8795C53.6697 40.5211 53.8489 40.0955 53.8489 39.5579C53.8489 39.0427 53.6697 38.5947 53.2889 38.1691L51.8329 36.8027C51.4969 36.4219 51.0713 36.2427 50.5561 36.2427C50.0409 36.2427 49.5929 36.4219 49.2121 36.8027C48.809 37.1835 48.6074 37.6315 48.6074 38.1467ZM51.9225 23.9453C51.9225 24.4829 52.1241 24.9085 52.5049 25.2669C52.9081 25.6701 53.3785 25.8717 53.8937 25.8717H58.4408C58.956 25.8717 59.404 25.6925 59.7624 25.3117C60.1208 24.9309 60.3 24.4829 60.3 23.9453C60.3 23.4077 60.1208 22.9597 59.7624 22.6013C59.404 22.2205 58.9784 22.0413 58.4408 22.0413H53.8937C53.3561 22.0413 52.9081 22.2205 52.5049 22.6013C52.1017 22.9821 51.9225 23.4301 51.9225 23.9453Z" fill="black"/>
</svg>
