<svg width="61" height="47" viewBox="0 0 61 47" fill="none" xmlns="http://www.w3.org/2000/svg">
<path d="M0 35.8704C0 37.8894 0.493527 39.7513 1.48058 41.4562C2.46763 43.1612 3.81362 44.5071 5.51853 45.4942C7.22344 46.4813 9.06295 46.9748 11.0595 46.9748H35.3545C37.351 46.9748 39.2129 46.4813 40.9179 45.4942C42.6228 44.5071 43.9912 43.1612 44.9782 41.4562C45.9653 39.7513 46.4813 37.8894 46.4813 35.8704C46.4813 34.3898 46.1672 32.8868 45.5391 31.3838C47.244 29.32 48.0964 26.8299 48.0964 23.9809C48.0964 22.3882 47.7824 20.8627 47.1767 19.4046C46.571 17.9464 45.7185 16.7126 44.6642 15.6583C43.6098 14.6039 42.376 13.7515 40.9179 13.1458C39.4597 12.5176 37.9343 12.226 36.3415 12.226C33.0214 12.226 30.1276 13.5271 27.6375 16.1294C25.9102 15.1423 23.8912 14.6488 21.5806 14.6488C18.4175 14.6488 15.6358 15.6358 13.2131 17.5875C10.7903 19.5392 9.21998 22.0517 8.54699 25.1026C6.03449 25.6858 3.99308 26.9645 2.40034 28.9835C0.80759 31.0025 0 33.2906 0 35.8704ZM3.83605 35.8704C3.83605 33.986 4.46417 32.3709 5.72042 31.0025C6.97667 29.634 8.54699 28.8489 10.4314 28.6246L11.553 28.5573C11.8222 28.5573 11.9792 28.4227 11.9792 28.1535L12.1363 26.9421C12.4503 24.5193 13.5047 22.4779 15.2993 20.8627C17.094 19.2251 19.2027 18.4175 21.603 18.4175C24.0706 18.4175 26.2242 19.2475 28.0413 20.8852C29.8808 22.5228 30.8903 24.5417 31.1146 26.9645L31.2717 28.2656C31.3165 28.5124 31.4735 28.647 31.7427 28.647H35.3545C37.3286 28.647 39.0335 29.3648 40.4692 30.8006C41.9049 32.2363 42.6228 33.9187 42.6228 35.8929C42.6228 37.9343 41.9049 39.6616 40.4916 41.0973C39.0784 42.533 37.351 43.2509 35.3769 43.2509H11.0595C9.08538 43.2509 7.4029 42.533 5.96719 41.0749C4.55391 39.6167 3.83605 37.8894 3.83605 35.8704ZM18.8662 8.34509C18.8662 8.88348 19.0456 9.35458 19.4046 9.75837L20.8852 11.1941C21.446 11.6203 21.9171 11.7998 22.3209 11.7549C22.792 11.7549 23.1958 11.553 23.5547 11.1717C23.9136 10.7903 24.0931 10.3192 24.0931 9.7808C24.0931 9.24241 23.8912 8.79375 23.5098 8.45725L22.1863 6.97667C21.7825 6.61775 21.3338 6.43828 20.8179 6.43828C20.2795 6.43828 19.8084 6.61775 19.427 6.99911C19.0456 7.35804 18.8662 7.8067 18.8662 8.34509ZM30.8454 18.2829C32.3933 16.7799 34.2328 16.0396 36.3415 16.0396C38.5624 16.0396 40.4468 16.8023 41.9946 18.3502C43.5425 19.8981 44.3277 21.76 44.3277 23.9809C44.3277 25.3718 43.9463 26.7626 43.1836 28.1086C41.0076 25.955 38.4054 24.8782 35.3545 24.8782H34.6366C34.0758 22.433 32.8195 20.2346 30.8454 18.2829ZM34.502 6.43828C34.502 7.02154 34.6815 7.4702 35.018 7.82913C35.3545 8.18806 35.8031 8.34509 36.3415 8.34509C36.9248 8.34509 37.3734 8.16562 37.7324 7.82913C38.0913 7.4702 38.2483 7.02154 38.2483 6.43828V1.83951C38.2483 1.30112 38.0689 0.874888 37.7099 0.51596C37.351 0.157031 36.9023 0 36.3415 0C35.8031 0 35.3769 0.179464 35.018 0.51596C34.659 0.852455 34.502 1.30112 34.502 1.83951V6.43828ZM46.885 11.5754C46.885 12.1587 47.0421 12.6074 47.3786 12.9663C47.8497 13.3252 48.3208 13.5047 48.7694 13.5047C49.1732 13.5047 49.6219 13.3252 50.093 12.9663L53.3009 9.75837C53.6598 9.35458 53.8393 8.88348 53.8393 8.32266C53.8393 7.78426 53.6598 7.3356 53.3009 6.97667C52.942 6.61775 52.4933 6.43828 51.9773 6.43828C51.439 6.43828 51.0127 6.61775 50.6762 6.97667L47.3786 10.1846C47.0421 10.6108 46.885 11.0595 46.885 11.5754ZM48.6573 38.1362C48.6573 38.6746 48.8367 39.1456 49.2181 39.5494L50.6762 40.9627C51.0127 41.3217 51.439 41.5011 51.9773 41.5011C52.5157 41.5011 52.9644 41.3217 53.3233 40.9403C53.6823 40.5589 53.8617 40.1103 53.8617 39.5494C53.8617 39.0559 53.6823 38.6073 53.3233 38.2483L51.8652 36.7902C51.5063 36.4312 51.08 36.2518 50.5865 36.2518C50.0481 36.2518 49.5994 36.4312 49.2405 36.7902C48.8592 37.1491 48.6573 37.5978 48.6573 38.1362ZM51.9549 23.9809C51.9549 24.4969 52.1568 24.9231 52.5382 25.282C52.8971 25.641 53.3682 25.8204 53.9066 25.8204H58.4829C58.9989 25.8204 59.4251 25.641 59.784 25.3045C60.143 24.968 60.3 24.5193 60.3 23.9809C60.3 23.4425 60.1205 22.9939 59.784 22.6349C59.4475 22.276 58.9989 22.0741 58.4829 22.0741H53.9066C53.3682 22.0741 52.9195 22.2536 52.5382 22.6349C52.1344 23.0163 51.9549 23.465 51.9549 23.9809Z" fill="black"/>
</svg>
