<svg width="61" height="49" viewBox="0 0 61 49" fill="none" xmlns="http://www.w3.org/2000/svg">
<path d="M0 36.1217C0 35.4597 0.211858 34.9036 0.662055 34.4534C1.11225 34.0296 1.6419 33.8178 2.25099 33.8178H16.6043C18.564 33.8178 20.2324 34.5063 21.6095 35.9099C22.9866 37.3134 23.6751 38.9818 23.6751 40.9415C23.6751 42.9012 22.9866 44.5961 21.6095 45.9731C20.2324 47.3502 18.564 48.0387 16.6043 48.0387C14.6447 48.0387 12.9498 47.3502 11.5727 45.9466C11.149 45.5229 10.9636 44.9933 10.9636 44.3577C10.9636 43.7221 11.1755 43.166 11.5727 42.7688C11.97 42.3451 12.4996 42.1332 13.1617 42.1332C13.7708 42.1332 14.3004 42.3451 14.7771 42.7688C15.3067 43.2719 15.9158 43.5368 16.6043 43.5368C17.2929 43.5368 17.902 43.2719 18.4051 42.7688C18.9083 42.2656 19.1731 41.6565 19.1731 40.915C19.1731 40.2265 18.9083 39.6174 18.4051 39.1142C17.902 38.6111 17.2929 38.3462 16.6043 38.3462H2.25099C1.6419 38.3462 1.11225 38.1344 0.662055 37.6842C0.211858 37.234 0 36.7573 0 36.1217ZM0 28.0711C0 27.4356 0.211858 26.8794 0.662055 26.4293C1.11225 26.0055 1.6419 25.7937 2.25099 25.7937H30.1897C30.8783 25.7937 31.4874 25.5289 31.9905 25.0257C32.4937 24.5225 32.7585 23.887 32.7585 23.1984C32.7585 22.5099 32.4937 21.8743 31.9905 21.3711C31.4874 20.868 30.8783 20.6032 30.1897 20.6032C29.4482 20.6032 28.8656 20.8415 28.3889 21.3447C27.9123 21.7419 27.3561 21.9538 26.6941 21.9538C26.0585 21.9538 25.5289 21.7419 25.1051 21.3447C24.7079 20.9474 24.496 20.4178 24.496 19.7557C24.496 19.0937 24.6814 18.564 25.1051 18.1403C26.4557 16.7897 28.1506 16.1277 30.1897 16.1277C32.1494 16.1277 33.8443 16.8162 35.2213 18.1933C36.5984 19.5704 37.287 21.2387 37.287 23.1719C37.287 25.1051 36.5984 26.8 35.2213 28.1771C33.8443 29.5542 32.1759 30.2427 30.1897 30.2427H2.25099C1.61541 30.2427 1.08577 30.0308 0.662055 29.6071C0.211858 29.2099 0 28.6802 0 28.0711ZM5.69368 21.8213C5.69368 22.0332 5.82609 22.1391 6.11739 22.1391H9.93083C10.1427 22.1391 10.3281 22.0067 10.5134 21.7419C11.096 20.3119 12.0494 19.1202 13.2941 18.1668C14.5652 17.2134 15.9688 16.6838 17.5047 16.5779L18.9083 16.366C19.2526 16.366 19.4379 16.2071 19.4379 15.9158L19.6233 14.5387C19.9146 11.6787 21.1063 9.26878 23.2514 7.33557C25.3964 5.40237 27.9123 4.42253 30.8253 4.42253C33.7648 4.42253 36.3071 5.37589 38.4522 7.30909C40.5972 9.24229 41.8154 11.6522 42.1332 14.5387L42.3186 16.1012C42.3186 16.3925 42.4775 16.5514 42.7688 16.5514H47.0589C49.4688 16.5514 51.5079 17.3988 53.2292 19.0937C54.9506 20.7885 55.798 22.8012 55.798 25.1846C55.798 27.5415 54.9506 29.5806 53.2292 31.2755C51.5079 32.9704 49.4688 33.8178 47.0589 33.8178H28.7597C28.4419 33.8178 28.2565 33.9767 28.2565 34.268V37.949C28.2565 38.2403 28.4154 38.3992 28.7597 38.3992H47.0589C49.4688 38.3992 51.6668 37.8166 53.7059 36.6249C55.7451 35.4597 57.334 33.8443 58.5257 31.8316C59.7174 29.7925 60.3 27.5945 60.3 25.2111C60.3 22.8012 59.7174 20.6032 58.5257 18.5905C57.334 16.5779 55.7451 14.9625 53.7059 13.7972C51.6668 12.632 49.4688 12.0229 47.0589 12.0229H46.2379C45.417 8.50079 43.5632 5.61423 40.6767 3.36324C37.8166 1.11225 34.5063 0 30.7988 0C27.0648 0 23.7545 1.16522 20.868 3.49565C17.9814 5.82609 16.1542 8.7921 15.3862 12.4202C13.1087 12.9498 11.096 14.0356 9.34822 15.6775C7.6004 17.3194 6.38221 19.2791 5.69368 21.53V21.636V21.8213Z" fill="black"/>
</svg>
