<svg width="61" height="59" viewBox="0 0 61 59" fill="none" xmlns="http://www.w3.org/2000/svg">
<path d="M0 27.5466C0 24.2014 1.04718 21.2344 3.14153 18.6165C5.23589 15.9986 7.88292 14.3405 11.0826 13.5842C11.9844 9.62822 14.0496 6.37033 17.2203 3.81056C20.3909 1.2508 24.0269 0 28.1284 0C32.1425 0 35.6913 1.2508 38.8328 3.7233C41.9744 6.1958 44.0106 9.39551 44.9414 13.2933H45.8722C48.4611 13.2933 50.8754 13.9333 53.0861 15.1841C55.2968 16.4349 57.0712 18.1802 58.3511 20.3618C59.631 22.5434 60.3 24.9577 60.3 27.5466C60.3 30.1064 59.6891 32.4625 58.4674 34.6441C57.2457 36.8258 55.5586 38.5711 53.4352 39.88C51.3117 41.189 48.9847 41.8871 46.454 41.9453C46.0758 41.9453 45.8722 41.7708 45.8722 41.4508V37.5821C45.8722 37.233 46.0758 37.0585 46.454 37.0585C48.9265 36.9421 51.0499 35.9531 52.7952 34.0915C54.5405 32.2298 55.4132 30.0482 55.4132 27.5175C55.4132 24.9868 54.4533 22.8052 52.5625 20.9436C50.6718 19.0819 48.432 18.1511 45.8431 18.1511H41.1599C40.8109 18.1511 40.6363 17.9766 40.6363 17.6566L40.4036 15.9695C40.0836 12.8279 38.7165 10.1809 36.3603 8.08654C33.9751 5.9631 31.2408 4.91592 28.0702 4.91592C24.8996 4.91592 22.1071 5.9631 19.78 8.08654C17.4239 10.21 16.1149 12.8279 15.824 15.9695L15.6204 17.5111C15.6204 17.8602 15.4168 18.0638 15.0386 18.0638L13.497 18.1511C11.0826 18.442 9.04645 19.4891 7.38842 21.2635C5.73039 23.0379 4.91592 25.1323 4.91592 27.5466C4.91592 30.0773 5.78857 32.2589 7.53386 34.1205C9.27916 35.9822 11.4026 36.9712 13.8751 37.0876C14.1951 37.0876 14.3696 37.2621 14.3696 37.6111V41.4799C14.3696 41.7999 14.1951 41.9744 13.8751 41.9744C9.97728 41.7999 6.6903 40.3163 3.98509 37.5239C1.27989 34.7314 0 31.4153 0 27.5466ZM15.5622 47.0067C15.5622 46.8903 15.5913 46.6867 15.6786 46.4249L20.42 29.6409C20.5945 29.0883 20.9145 28.652 21.3508 28.3611C21.7871 28.0702 22.2525 27.9247 22.6889 27.9247C22.8925 27.9247 23.1252 27.9538 23.387 28.012C24.0851 28.1284 24.6087 28.5065 24.9577 29.0883C25.3068 29.67 25.3941 30.31 25.1904 31.0372L20.4491 47.7048C20.1 48.9556 19.2855 49.5664 18.0638 49.5664C17.9475 49.5664 17.8602 49.5373 17.7438 49.5082C17.5693 49.4501 17.4821 49.421 17.453 49.421C16.813 49.2464 16.3476 48.9265 16.0276 48.4611C15.7077 47.9666 15.5622 47.5012 15.5622 47.0067ZM23.1834 55.1805L30.2809 29.67C30.3972 29.1174 30.6881 28.681 31.1535 28.3902C31.619 28.0993 32.0844 27.9538 32.5789 27.9538C32.8407 27.9538 33.1025 27.9829 33.3643 28.0411C34.0042 28.2156 34.4696 28.5938 34.7896 29.1755C35.1096 29.7573 35.1677 30.3682 34.9932 31.0372L27.9247 56.5767C27.8084 57.0712 27.5466 57.4784 27.0812 57.8275C26.6158 58.1765 26.1504 58.3511 25.5977 58.3511C25.3359 58.3511 25.0741 58.2929 24.8705 58.2056C24.2887 58.0602 23.7942 57.682 23.3579 57.0712C23.0379 56.5476 22.9797 55.9368 23.1834 55.1805ZM35.1968 47.0648C35.1968 46.9485 35.2259 46.7449 35.3132 46.3958L40.0546 29.6119C40.2291 29.0592 40.52 28.6229 40.9272 28.332C41.3635 28.0411 41.7999 27.8957 42.2653 27.8957C42.498 27.8957 42.7598 27.9247 43.0216 27.9829C43.6324 28.1574 44.0687 28.4483 44.3596 28.8847C44.6505 29.321 44.7959 29.7864 44.7959 30.2518C44.7959 30.3391 44.7669 30.4845 44.7378 30.659C44.7087 30.8336 44.6796 30.9499 44.6796 31.0081L39.9382 47.6757C39.8219 48.2284 39.5601 48.6938 39.1237 49.0137C38.6874 49.3337 38.1929 49.5082 37.6402 49.5082L36.9421 49.3628C36.3603 49.1883 35.924 48.8974 35.604 48.432C35.3423 47.9957 35.1968 47.5302 35.1968 47.0648Z" fill="black"/>
</svg>
