<svg width="24" height="24" viewBox="0 0 24 24" fill="none" xmlns="http://www.w3.org/2000/svg">
<path d="M10.3999 2.40002C5.9911 2.40002 2.3999 5.99122 2.3999 10.4C2.3999 14.8088 5.9911 18.4 10.3999 18.4C12.3171 18.4 14.0778 17.7192 15.4577 16.5891L20.2343 21.3657C20.308 21.4424 20.3963 21.5037 20.494 21.546C20.5917 21.5882 20.6968 21.6105 20.8033 21.6116C20.9097 21.6127 21.0153 21.5925 21.1138 21.5523C21.2124 21.512 21.3019 21.4525 21.3772 21.3773C21.4524 21.302 21.5119 21.2125 21.5521 21.114C21.5924 21.0154 21.6125 20.9098 21.6115 20.8034C21.6104 20.697 21.5881 20.5918 21.5458 20.4941C21.5036 20.3964 21.4423 20.3081 21.3655 20.2344L16.589 15.4578C17.7191 14.0779 18.3999 12.3172 18.3999 10.4C18.3999 5.99122 14.8087 2.40002 10.3999 2.40002ZM10.3999 4.00002C13.944 4.00002 16.7999 6.85593 16.7999 10.4C16.7999 13.9441 13.944 16.8 10.3999 16.8C6.8558 16.8 3.9999 13.9441 3.9999 10.4C3.9999 6.85593 6.8558 4.00002 10.3999 4.00002Z" fill="black"/>
</svg>
