<svg width="61" height="59" viewBox="0 0 61 59" fill="none" xmlns="http://www.w3.org/2000/svg">
<path d="M0 27.6897C0 24.3122 1.01907 21.3423 3.08633 18.7218C5.1536 16.1014 7.80319 14.4126 11.0642 13.5973C11.9668 9.63752 14.005 6.37648 17.1787 3.81424C20.3523 1.252 23.9919 0 28.0973 0C32.1154 0 35.6676 1.252 38.8121 3.7269C41.9567 6.20179 43.9948 9.40459 44.9266 13.3062H45.8583C48.4496 13.3062 50.8663 13.9467 53.0791 15.2279C55.292 16.509 57.0681 18.256 58.3492 20.4688C59.6303 22.6817 60.3 25.0983 60.3 27.6897C60.3 31.533 58.9606 34.8814 56.2528 37.6475C53.5741 40.4426 50.284 41.8985 46.4115 42.0149C46.033 42.0149 45.8292 41.8402 45.8292 41.5199V37.6475C45.8292 37.2981 46.033 37.1234 46.4115 37.1234C48.8864 37.0069 51.0119 36.0169 52.7589 34.1535C54.5058 32.2901 55.3793 30.1354 55.3793 27.6605C55.3793 25.0692 54.4476 22.8563 52.555 20.9638C50.6625 19.0712 48.4205 18.1395 45.8001 18.1395H41.1123C40.7629 18.1395 40.5882 17.9648 40.5882 17.6445L40.3553 15.9558C40.035 12.8112 38.6665 10.1616 36.3081 8.03612C33.9206 5.91062 31.1836 4.83332 28.0099 4.83332C24.8071 4.83332 22.0411 5.91062 19.6827 8.06523C17.3242 10.2198 15.9849 12.8694 15.6937 16.0722L15.519 17.5281C15.519 17.8775 15.3152 18.0813 14.9367 18.0813L13.3935 18.2851C10.9769 18.4889 8.93873 19.4789 7.27909 21.3132C5.61946 23.1475 4.8042 25.2439 4.8042 27.6897C4.8042 30.1646 5.67769 32.3192 7.42467 34.1826C9.17166 36.0461 11.2972 37.0069 13.772 37.1525C14.0923 37.1525 14.267 37.3272 14.267 37.6766V41.5491C14.267 41.8693 14.0923 42.044 13.772 42.044C9.87045 41.9276 6.5803 40.4717 3.87248 37.6766C1.33935 34.8814 0 31.533 0 27.6897ZM18.518 39.54C18.518 38.8995 18.7509 38.3171 19.2168 37.8513C19.6827 37.3854 20.2359 37.1525 20.9347 37.1525C21.6043 37.1525 22.1867 37.3854 22.6525 37.8513C23.1184 38.3171 23.3513 38.8995 23.3513 39.54C23.3513 40.2388 23.1184 40.8211 22.6525 41.287C22.1867 41.782 21.6335 42.0149 20.9347 42.0149C20.265 42.0149 19.6827 41.782 19.2168 41.287C18.7509 40.8211 18.518 40.2388 18.518 39.54ZM18.518 50.1093C18.518 49.4105 18.7509 48.8281 19.2168 48.3623C19.6827 47.9255 20.2359 47.6926 20.9056 47.6926C21.5752 47.6926 22.1576 47.9255 22.6234 48.3623C23.0893 48.8281 23.3222 49.3814 23.3222 50.0802C23.3222 50.7789 23.0893 51.3322 22.6234 51.798C22.1576 52.2639 21.6043 52.4677 20.9056 52.4677C20.2359 52.4677 19.6535 52.2348 19.1877 51.798C18.7509 51.3613 18.518 50.7789 18.518 50.1093ZM27.8061 45.1595C27.8061 44.4898 28.0391 43.8784 28.534 43.3543C28.9999 42.8884 29.5531 42.6555 30.1937 42.6555C30.8634 42.6555 31.4457 42.9175 31.9407 43.4125C32.4356 43.9075 32.6977 44.4898 32.6977 45.1595C32.6977 45.8292 32.4647 46.4115 31.9698 46.9065C31.4748 47.4014 30.8925 47.6344 30.1937 47.6344C29.524 47.6344 28.9708 47.4014 28.5049 46.9065C28.0391 46.4115 27.8061 45.8292 27.8061 45.1595ZM27.8061 34.6194C27.8061 33.9497 28.0391 33.3674 28.534 32.8724C29.0581 32.4065 29.6113 32.1736 30.1937 32.1736C30.8925 32.1736 31.4748 32.4065 31.9698 32.9015C32.4647 33.3965 32.6977 33.9497 32.6977 34.6485C32.6977 35.3182 32.4647 35.9005 31.9698 36.3663C31.4748 36.8322 30.8925 37.0651 30.1937 37.0651C29.524 37.0651 28.9708 36.8322 28.5049 36.3663C28.0391 35.8714 27.8061 35.289 27.8061 34.6194ZM27.8061 55.8161C27.8061 55.1464 28.0391 54.5641 28.534 54.04C28.9999 53.5741 29.5531 53.3412 30.1937 53.3412C30.8925 53.3412 31.4748 53.5741 31.9698 54.0691C32.4647 54.5641 32.6977 55.1464 32.6977 55.8161C32.6977 56.4858 32.4647 57.0681 31.9698 57.5339C31.4748 57.9998 30.8925 58.2327 30.1937 58.2327C29.524 58.2327 28.9708 57.9998 28.5049 57.5339C28.0391 57.039 27.8061 56.4858 27.8061 55.8161ZM37.1816 39.54C37.1816 38.8995 37.4145 38.3463 37.9095 37.8513C38.4045 37.3563 38.9868 37.1234 39.6565 37.1234C40.3262 37.1234 40.9085 37.3563 41.3744 37.8222C41.8402 38.288 42.0732 38.8704 42.0732 39.5109C42.0732 40.2097 41.8402 40.792 41.3744 41.2579C40.9085 41.7529 40.3553 41.9858 39.6565 41.9858C38.9577 41.9858 38.3754 41.7529 37.9095 41.2579C37.4437 40.792 37.1816 40.2097 37.1816 39.54ZM37.1816 50.1093C37.1816 49.4687 37.4145 48.8864 37.9095 48.3623C38.3754 47.9255 38.9577 47.6926 39.6565 47.6926C40.3553 47.6926 40.9085 47.9255 41.3744 48.3623C41.8402 48.799 42.044 49.3814 42.044 50.0802C42.044 50.7789 41.8111 51.3322 41.3744 51.798C40.9085 52.2639 40.3553 52.4677 39.6565 52.4677C38.9577 52.4677 38.3754 52.2348 37.9095 51.7689C37.4437 51.3322 37.1816 50.7789 37.1816 50.1093Z" fill="black"/>
</svg>
