<svg width="61" height="59" viewBox="0 0 61 59" fill="none" xmlns="http://www.w3.org/2000/svg">
<path d="M0 27.5308C0 30.7611 0.960376 33.6423 2.88113 36.1742C4.80188 38.7061 7.27558 40.4522 10.3313 41.3835L8.43967 46.2727C8.35236 46.6801 8.49788 46.9129 8.8471 46.9129H15.0459L12.0193 57.9136H12.8341L24.3877 42.7222C24.5041 42.6058 24.5041 42.4603 24.4459 42.3148C24.3877 42.1693 24.2422 42.1111 24.0385 42.1111H17.6942L24.9116 28.6076C25.0862 28.2001 24.9698 27.9964 24.5041 27.9964H15.9481C15.6861 27.9964 15.4533 28.1419 15.3078 28.4039L12.1357 36.7562C10.0694 36.2324 8.35236 35.0974 6.98456 33.3804C5.61675 31.6633 4.94739 29.7135 4.94739 27.5308C4.94739 25.1153 5.76226 23.0199 7.39199 21.2447C9.02172 19.4694 11.0589 18.4509 13.5035 18.1598L15.0168 17.9561C15.3951 17.9561 15.5988 17.7815 15.5988 17.4614L15.8026 15.9481C16.0936 12.805 17.4032 10.1567 19.7605 8.03224C22.1178 5.90777 24.8825 4.83098 28.0546 4.83098C31.2268 4.83098 33.9915 5.90777 36.3488 8.03224C38.7352 10.1567 40.0739 12.805 40.4231 15.9481L40.5977 17.636C40.5977 17.9852 40.7723 18.1598 41.1507 18.1598H45.8361C48.4845 18.1598 50.7253 19.0911 52.5879 20.9246C54.4504 22.758 55.3817 24.9698 55.3817 27.5599C55.3817 30.0336 54.5086 32.1872 52.7916 33.9915C51.0746 35.7958 48.9501 36.7853 46.4182 36.989C46.0399 36.989 45.8361 37.1637 45.8361 37.542V41.529C45.8361 41.8491 46.0399 42.0237 46.4182 42.0237C48.3098 41.9655 50.1142 41.529 51.8312 40.7432C53.5483 39.9575 55.0325 38.9098 56.2548 37.6293C57.4771 36.3488 58.4665 34.8355 59.1941 33.0602C59.9217 31.3141 60.3 29.4806 60.3 27.589C60.3 24.9698 59.6597 22.5543 58.3501 20.3425C57.0405 18.1307 55.2944 16.3846 53.0826 15.1041C50.8708 13.8236 48.4553 13.1833 45.8652 13.1833H44.934C43.9736 9.31274 41.9364 6.14059 38.7934 3.696C35.6503 1.2514 32.0999 0 28.0837 0C23.9803 0 20.3134 1.2805 17.1413 3.8124C13.9691 6.34431 11.9319 9.60376 11.0298 13.5908C7.82852 14.3474 5.18021 16.0063 3.08485 18.6255C0.989478 21.2447 0 24.184 0 27.5308ZM23.7475 56.2257C23.7475 56.6913 23.893 57.1278 24.184 57.5644C24.475 58.0009 24.9407 58.321 25.5227 58.4957C25.9302 58.583 26.163 58.6412 26.2503 58.6412C26.5122 58.6412 26.8614 58.5539 27.3562 58.3501C27.9673 58.0882 28.3748 57.5644 28.5785 56.8368L29.3933 53.7811C29.5679 53.1408 29.5097 52.5297 29.1605 51.9476C28.8113 51.3656 28.3166 50.9873 27.6181 50.7835C26.9778 50.6089 26.3667 50.6671 25.7846 51.0164C25.2026 51.3656 24.7952 51.8603 24.5915 52.5588L23.8057 55.469C23.7766 55.9638 23.7475 56.2257 23.7475 56.2257ZM27.6472 42.3439C27.6472 42.7513 27.7927 43.1878 28.0837 43.6244C28.3748 44.0609 28.8113 44.381 29.3933 44.5847C30.0336 44.7885 30.6738 44.7594 31.2559 44.4392C31.8379 44.1191 32.2163 43.6244 32.42 42.9259L33.293 39.8993C33.4677 39.259 33.3804 38.6479 33.0602 38.0658C32.711 37.4838 32.1872 37.0764 31.5178 36.8726C30.8485 36.698 30.2373 36.7562 29.6262 37.1055C29.015 37.4547 28.6367 37.9494 28.433 38.6188L27.7345 41.5581C27.6763 42.0528 27.6472 42.3148 27.6472 42.3439ZM35.8541 47.1458C35.8541 47.6405 35.9996 48.1352 36.3197 48.63C36.6398 49.1247 37.1054 49.4448 37.6875 49.6486C37.7457 49.6486 37.8621 49.6777 38.0367 49.7068C38.1822 49.7359 38.2986 49.765 38.386 49.765C38.7643 49.765 39.1426 49.7068 39.4918 49.5321C40.0448 49.3284 40.4522 48.7755 40.685 47.8733L41.4126 44.934C41.6163 44.2646 41.5581 43.6244 41.238 43.0132C40.9179 42.4021 40.4231 41.9946 39.7829 41.7909C39.0553 41.6163 38.386 41.7036 37.8039 42.0237C37.2219 42.373 36.8435 42.8968 36.7271 43.5662L35.9414 46.5637C35.8832 46.7383 35.8541 46.942 35.8541 47.1458ZM39.812 33.2057C39.7829 33.6714 39.9284 34.1079 40.2485 34.5736C40.5686 35.0392 41.0343 35.3884 41.6745 35.6794C41.9073 35.7958 42.1401 35.8541 42.4312 35.8541C42.7513 35.8541 43.0714 35.7667 43.4206 35.6212C44.0318 35.3302 44.4392 34.7773 44.7012 33.9624L45.5451 30.9649C45.6033 30.5865 45.6324 30.3828 45.6324 30.3246C45.6324 29.8299 45.4869 29.3642 45.1668 28.8986C44.8467 28.433 44.381 28.1128 43.7408 27.9382C43.6826 27.9382 43.5662 27.9091 43.4206 27.88C43.246 27.7927 43.1296 27.7927 43.0423 27.7927C42.5476 27.7927 42.0819 27.9382 41.6163 28.2292C41.1507 28.5203 40.8305 28.9859 40.6559 29.6262L39.8702 32.5655C39.8411 32.7983 39.812 33.002 39.812 33.2057Z" fill="black"/>
</svg>
